<svg width="56" height="56" viewBox="0 0 56 56" fill="none" xmlns="http://www.w3.org/2000/svg">
<path d="M24.75 6H32.0508C32.9787 6.00014 33.8686 6.36877 34.5248 7.02484L49.9752 22.4752C50.6312 23.1314 50.9999 24.0213 51 24.9492V46.25C51 47.6424 50.4469 48.9777 49.4623 49.9623C48.4777 50.9469 47.1424 51.5 45.75 51.5H23C21.6076 51.5 20.2723 50.9469 19.2877 49.9623C18.3031 48.9777 17.75 47.6424 17.75 46.25V32.25" stroke="#FFAA17" stroke-width="3" stroke-linecap="round" stroke-linejoin="round"/>
<path d="M33.5 6.875V20C33.5 20.9283 33.8687 21.8185 34.5251 22.4749C35.1815 23.1313 36.0717 23.5 37 23.5H50.125" stroke="#FFAA17" stroke-width="3" stroke-linecap="round" stroke-linejoin="round"/>
<path d="M19.5 7.75V24.375C19.5046 24.721 19.4398 25.0644 19.3095 25.3849C19.1792 25.7054 18.986 25.9966 18.7413 26.2413C18.4966 26.486 18.2054 26.6792 17.8849 26.8095C17.5644 26.9398 17.221 27.0046 16.875 27C15.5625 27 14.25 26.0047 14.25 24.375V8.625C14.25 5.27922 16.0623 2.5 19.5 2.5C22.9377 2.5 24.75 5.2125 24.75 8.55719V23.733C24.75 28.4361 21.7072 32.25 16.875 32.25C12.0428 32.25 9 28.4372 9 23.733V14.75" stroke="#FFAA17" stroke-width="3" stroke-miterlimit="10" stroke-linecap="round"/>
</svg>
